<svg height="496pt" viewBox="-80 0 496 496" width="496pt" xmlns="http://www.w3.org/2000/svg"><path d="m336 378.59375c0-24.144531-15.382812-45.496094-38.289062-53.121094l-81.710938-27.242187v-16.574219c17.679688-11.558594 30.910156-29.304688 36.710938-50.136719 19.816406-2.359375 35.289062-19.078125 35.289062-39.519531v-95.015625c0-22.023437-14.230469-41.273437-34.976562-47.871094-20.925782-30.769531-55.535157-49.113281-92.800782-49.113281-61.878906 0-112.222656 50.34375-112.222656 112.214844v152.785156c0 11.039062 2.207031 21.785156 6.558594 31.9375l8.664062 20.222656-24.925781 8.3125c-22.914063 7.632813-38.296875 28.984375-38.296875 53.121094v85.40625h32v32h112v-32h192zm-106.496094-58.992188-23.808594 57.132813-26.871093-32.238281 31.335937-31.335938zm-29.503906-18.914062-32 32-25.726562-25.71875c-.601563-3.121094-1.296876-6.226562-2.21875-9.28125l-2.160157-7.207031c9.609375 3.496093 19.730469 5.519531 30.105469 5.519531 11.296875 0 22.0625-2.214844 32-6.113281zm-59.296875 48.472656c1.625-5.960937 2.449219-12.097656 2.871094-18.265625l13.152343 13.152344-20.230468 20.539063zm27.296875-69.160156c-12.816406 0-25.238281-3.503906-36.222656-9.929688l-9.167969-30.566406c-2.785156-9.273437-11.160156-15.503906-20.847656-15.503906-2.007813 0-3.914063.359375-5.761719.871094v-72.871094h144v56c0 39.703125-32.304688 72-72 72zm87.664062-65.367188c.167969-2.199218.335938-4.394531.335938-6.632812v-38.527344c9.289062 3.3125 16 12.113282 16 22.527344 0 10.535156-6.871094 19.414062-16.335938 22.632812zm-95.441406-198.632812c32.242188 0 62.175782 16.015625 80.058594 42.832031l2.773438 4.167969 3.007812.753906c15.273438 3.820313 25.9375 17.484375 25.9375 33.230469v63.222656c-4.671875-3.535156-10.054688-6.183593-16-7.390625v-48.816406h-16v32h-16v-16h-16v16h-16v-16h-16v16h-16v-16h-16v16h-16v-16h-16v16h-16v-32h-16v65.472656c-2.511719-.898437-5.183594-1.472656-8-1.472656s-5.488281.574219-8 1.472656v-57.257812c0-53.046875 43.167969-96.214844 96.222656-96.214844zm-88.222656 168c4.40625 0 8 3.585938 8 8v56h.273438c.117187 1.359375.191406 2.734375.566406 4.046875l15.472656 54.152344 15.382812-4.390625-15.472656-54.160156c-.152344-.511719-.222656-1.046876-.222656-1.886719 0-3.167969 2.585938-5.761719 5.761719-5.761719 2.558593 0 4.78125 1.648438 5.511719 4.105469l17.453124 58.167969c2.167969 7.230468 3.273438 14.734374 3.273438 22.269531 0 6.898437-.921875 13.761719-2.726562 20.402343l-19.386719 71.054688h-31.648438l11.335938-45.335938c1.609375-6.433593 2.425781-13.046874 2.425781-19.664062 0-11.039062-2.207031-21.785156-6.558594-31.9375l-12.175781-28.421875c-3.496094-8.152344-5.265625-16.785156-5.265625-25.640625v-73c0-4.414062 3.59375-8 8-8zm-56 264v-69.40625c0-17.242188 10.992188-32.496094 27.351562-37.945312l25.808594-8.609376c1.871094 6.136719 2.839844 12.480469 2.839844 18.960938 0 5.3125-.65625 10.625-1.945312 15.792969l-12.300782 49.207031h-25.753906v32zm112 32h-80v-48h80zm-5.527344-64 5.421875-19.871094 32.105469-32.609375v84.480469h-16v-32zm197.527344 32h-48v-48h-16v48h-80v-81.902344l34.304688 41.167969 34.414062-82.59375 47.9375 15.976563c16.351562 5.457031 27.34375 20.703124 27.34375 37.945312zm0 0"/><path d="m136 176c0 4.417969-3.582031 8-8 8s-8-3.582031-8-8 3.582031-8 8-8 8 3.582031 8 8zm0 0"/><path d="m216 176c0 4.417969-3.582031 8-8 8s-8-3.582031-8-8 3.582031-8 8-8 8 3.582031 8 8zm0 0"/><path d="m168 224c-17.648438 0-32 14.351562-32 32h16c0-8.824219 7.175781-16 16-16s16 7.175781 16 16h16c0-17.648438-14.351562-32-32-32zm0 0"/></svg>